<svg width="34" height="34" viewBox="0 0 34 34" fill="none" xmlns="http://www.w3.org/2000/svg">
<rect width="34" height="34" rx="4" fill="#BFBFBF"/>
<path d="M27.8286 24.8625C27.2391 23.4662 26.3837 22.1978 25.3099 21.1281C24.2394 20.0553 22.9712 19.2 21.5755 18.6094C21.563 18.6031 21.5505 18.6 21.538 18.5938C23.4849 17.1875 24.7505 14.8969 24.7505 12.3125C24.7505 8.03125 21.2818 4.5625 17.0005 4.5625C12.7193 4.5625 9.25052 8.03125 9.25052 12.3125C9.25052 14.8969 10.5161 17.1875 12.463 18.5969C12.4505 18.6031 12.438 18.6062 12.4255 18.6125C11.0255 19.2031 9.76927 20.05 8.69115 21.1313C7.61836 22.2018 6.76303 23.4699 6.1724 24.8656C5.59215 26.232 5.27921 27.697 5.25052 29.1812C5.24969 29.2146 5.25554 29.2478 5.26773 29.2788C5.27992 29.3099 5.2982 29.3382 5.3215 29.3621C5.3448 29.386 5.37264 29.4049 5.40338 29.4179C5.43413 29.4308 5.46716 29.4375 5.50052 29.4375H7.37552C7.51302 29.4375 7.6224 29.3281 7.62552 29.1938C7.68802 26.7812 8.65677 24.5219 10.3693 22.8094C12.1411 21.0375 14.4943 20.0625 17.0005 20.0625C19.5068 20.0625 21.8599 21.0375 23.6318 22.8094C25.3443 24.5219 26.313 26.7812 26.3755 29.1938C26.3786 29.3313 26.488 29.4375 26.6255 29.4375H28.5005C28.5339 29.4375 28.5669 29.4308 28.5977 29.4179C28.6284 29.4049 28.6562 29.386 28.6795 29.3621C28.7028 29.3382 28.7211 29.3099 28.7333 29.2788C28.7455 29.2478 28.7514 29.2146 28.7505 29.1812C28.7193 27.6875 28.4099 26.2344 27.8286 24.8625ZM17.0005 17.6875C15.5661 17.6875 14.2161 17.1281 13.2005 16.1125C12.1849 15.0969 11.6255 13.7469 11.6255 12.3125C11.6255 10.8781 12.1849 9.52812 13.2005 8.5125C14.2161 7.49687 15.5661 6.9375 17.0005 6.9375C18.4349 6.9375 19.7849 7.49687 20.8005 8.5125C21.8161 9.52812 22.3755 10.8781 22.3755 12.3125C22.3755 13.7469 21.8161 15.0969 20.8005 16.1125C19.7849 17.1281 18.4349 17.6875 17.0005 17.6875Z" fill="white"/>
</svg>
