<svg width="0" height="0" class="hidden">
  <symbol xmlns="http://www.w3.org/2000/svg" viewBox="0 0 18 20" id="share">
    <path d="M14.5 13.563a2.8 2.8 0 00-1.767.625l-4.857-3.513a3.766 3.766 0 000-1.35l4.857-3.513a2.8 2.8 0 001.767.625 2.815 2.815 0 002.812-2.812A2.815 2.815 0 0014.5.812a2.815 2.815 0 00-2.702 3.593l-4.613 3.34A3.749 3.749 0 00.437 10a3.749 3.749 0 006.748 2.255l4.613 3.34a2.815 2.815 0 002.702 3.593 2.815 2.815 0 002.812-2.813 2.815 2.815 0 00-2.812-2.813zm0-11.157a1.22 1.22 0 11-.001 2.439 1.22 1.22 0 010-2.439zM4.187 12.062A2.066 2.066 0 012.125 10c0-1.137.926-2.063 2.062-2.063 1.137 0 2.063.926 2.063 2.063a2.066 2.066 0 01-2.063 2.063zM14.5 17.595a1.22 1.22 0 11.001-2.439 1.22 1.22 0 01-.001 2.439z"></path>
  </symbol>
  <symbol xmlns="http://www.w3.org/2000/svg" viewBox="0 0 19 20" id="like">
    <path d="M18.138 10.51c.394-.52.612-1.158.612-1.822 0-1.052-.588-2.048-1.535-2.604a1.586 1.586 0 00-.804-.218h-5.62l.14-2.88a2.509 2.509 0 00-.691-1.861A2.498 2.498 0 008.414.342c-1.219 0-2.297.82-2.62 1.995L3.78 9.626H.75a.75.75 0 00-.75.75v8.531c0 .415.335.75.75.75h14.093c.216 0 .427-.042.621-.127a3.014 3.014 0 001.709-3.642 3.016 3.016 0 00.485-2.688c.394-.52.611-1.158.611-1.821a3.2 3.2 0 00-.13-.87zm-16.45 7.46v-6.657h1.898v6.657H1.688zm14.915-8.274l-.513.445.326.596a1.338 1.338 0 01-.298 1.648l-.513.445.325.595a1.338 1.338 0 01-.298 1.648l-.512.445.325.595a1.332 1.332 0 01-.626 1.854H5.086v-6.729L7.418 2.79a1.034 1.034 0 01.989-.757.833.833 0 01.837.872l-.225 4.65h7.368c.418.255.675.687.675 1.134 0 .387-.168.753-.459 1.008z"></path>
  </symbol>
  <symbol xmlns="http://www.w3.org/2000/svg" viewBox="0 0 20 20" id="save">
    <path d="M18.812 4.874L15 1.064a1.494 1.494 0 00-.626-.376V.625H1.25a.75.75 0 00-.75.75v17.25c0 .415.335.75.75.75H18.5a.75.75 0 00.75-.75V5.934c0-.399-.157-.779-.438-1.06zM6.875 2.313h6V4.75h-6V2.312zm10.687 15.374H2.187V2.313h3.188V5.5c0 .415.335.75.75.75h7.5a.75.75 0 00.75-.75V2.823l3.187 3.188v11.677zM9.875 8.36a3.376 3.376 0 10.002 6.752 3.376 3.376 0 00-.002-6.752zm0 5.25a1.875 1.875 0 11-.001-3.749 1.875 1.875 0 010 3.75z"></path>
  </symbol>
  <symbol xmlns="http://www.w3.org/2000/svg" viewBox="0 0 22 22" id="comment">
    <path d="M9.75 11A1.125 1.125 0 1012 11a1.125 1.125 0 00-2.25 0zm4.688 0a1.125 1.125 0 102.25 0 1.125 1.125 0 00-2.25 0zm-9.375 0a1.125 1.125 0 102.25 0 1.125 1.125 0 00-2.25 0zM20.56 6.931a10.505 10.505 0 00-5.616-5.615A10.45 10.45 0 0010.875.5h-.047A10.476 10.476 0 00.375 11.05 10.533 10.533 0 001.5 15.733v3.563a1.078 1.078 0 001.078 1.078h3.565a10.533 10.533 0 004.685 1.125h.05c1.403 0 2.765-.272 4.047-.804a10.417 10.417 0 003.347-2.231 10.473 10.473 0 003.103-7.418 10.459 10.459 0 00-.816-4.116zm-3.542 10.266a8.673 8.673 0 01-6.143 2.522h-.04a8.75 8.75 0 01-4.057-1.02l-.197-.105h-3.3v-3.3l-.105-.197a8.75 8.75 0 01-1.02-4.057 8.665 8.665 0 012.522-6.183 8.653 8.653 0 016.16-2.576h.04c1.171 0 2.308.228 3.38.678a8.662 8.662 0 012.788 1.875 8.683 8.683 0 012.552 6.206 8.686 8.686 0 01-2.58 6.157z"></path>
  </symbol>
  <symbol xmlns="http://www.w3.org/2000/svg" viewBox="0 0 22 22" id="exit">
    <path d="M15.537 1.927a.188.188 0 00-.272.17V3.6c0 .129.068.248.176.319a8.255 8.255 0 011.458 1.167 8.319 8.319 0 012.442 5.906 8.33 8.33 0 01-2.442 5.906 8.274 8.274 0 01-2.653 1.79 8.265 8.265 0 01-3.246.657 8.27 8.27 0 01-3.247-.656A8.274 8.274 0 015.1 16.9a8.32 8.32 0 01-2.442-5.906A8.329 8.329 0 015.1 5.086 8.473 8.473 0 016.558 3.92a.374.374 0 00.176-.32V2.095c0-.14-.148-.23-.272-.169a10.14 10.14 0 00-5.587 8.941C.809 16.463 5.386 21.113 10.98 21.125c5.601.012 10.144-4.53 10.144-10.134 0-3.966-2.274-7.4-5.588-9.064zM10.25 12.125h1.5a.188.188 0 00.187-.188V1.063a.188.188 0 00-.187-.188h-1.5a.188.188 0 00-.188.188v10.874c0 .104.085.188.188.188z"></path>
  </symbol>
  <symbol xmlns="http://www.w3.org/2000/svg" viewBox="0 0 12 14" id="fire">
    <path d="M11.033 6.331a5.43 5.43 0 00-1.295-1.8l-.455-.417a.127.127 0 00-.203.052l-.203.583c-.127.365-.36.739-.69 1.106a.098.098 0 01-.064.031.086.086 0 01-.067-.023.092.092 0 01-.031-.075c.058-.94-.223-2.002-.84-3.157-.508-.959-1.216-1.707-2.1-2.23L4.438.023a.125.125 0 00-.187.114l.034.75c.023.513-.036.966-.177 1.342-.171.461-.418.89-.734 1.274a4.62 4.62 0 01-.742.72 5.51 5.51 0 00-1.567 1.899 5.434 5.434 0 00-.133 4.535 5.49 5.49 0 002.928 2.9 5.5 5.5 0 002.14.429c.742 0 1.46-.144 2.14-.427a5.445 5.445 0 001.747-1.167A5.408 5.408 0 0011.5 8.533c0-.762-.156-1.503-.467-2.202zM9.14 11.633A4.43 4.43 0 016 12.921a4.43 4.43 0 01-3.14-1.288 4.34 4.34 0 01-1.297-3.1c0-.68.153-1.331.454-1.937a4.42 4.42 0 011.263-1.53c.339-.26.646-.557.915-.888.39-.476.697-1.007.91-1.578a3.75 3.75 0 00.189-.726c.376.347.692.765.956 1.256.522.978.763 1.848.716 2.589a1.156 1.156 0 002.012.847 5.09 5.09 0 00.538-.713c.218.28.401.585.546.913a4.33 4.33 0 01.376 1.767c0 1.17-.461 2.272-1.297 3.1z"></path>
  </symbol>
  <symbol xmlns="http://www.w3.org/2000/svg" viewBox="0 0 14 12" id="video">
    <path d="M13.25 2.723l-2 1.152V1.5a1 1 0 00-1-1H1a1 1 0 00-1 1v9a1 1 0 001 1h9.25a1 1 0 001-1V8.125l2 1.152a.5.5 0 00.75-.432V3.156a.5.5 0 00-.75-.433zm-3.125 7.652h-9v-8.75h9v8.75zm2.75-2.61l-1.625-.934v-1.66l1.625-.937v3.532zM2.25 3.626H4a.125.125 0 00.125-.125v-.75A.125.125 0 004 2.625H2.25a.125.125 0 00-.125.125v.75c0 .069.056.125.125.125z"></path>
  </symbol>
  <symbol xmlns="http://www.w3.org/2000/svg" viewBox="0 0 14 12" id="photo">
    <path d="M13.5.5H.5A.5.5 0 000 1v10a.5.5 0 00.5.5h13a.5.5 0 00.5-.5V1a.5.5 0 00-.5-.5zm-.625 9.875H1.125v-.623l2.164-2.568 2.345 2.782L9.283 5.64l3.592 4.26v.475zm0-2.028L9.378 4.2a.124.124 0 00-.19 0L5.633 8.412l-2.25-2.667a.124.124 0 00-.19 0L1.125 8.198V1.625h11.75v6.722zM3.75 5.125a1.375 1.375 0 100-2.75 1.375 1.375 0 000 2.75zm0-1.813a.437.437 0 11.001.874.437.437 0 01-.001-.873z"></path>
  </symbol>
</svg>
